<svg width="14" height="15" viewBox="0 0 14 15" fill="none" xmlns="http://www.w3.org/2000/svg">
<path d="M2.54975 11.6546C2.58475 11.6546 2.61975 11.6511 2.65475 11.6458L5.59825 11.1296C5.63325 11.1226 5.6665 11.1068 5.691 11.0806L13.1093 3.66231C13.1255 3.64612 13.1383 3.62689 13.1471 3.60572C13.1559 3.58455 13.1604 3.56185 13.1604 3.53893C13.1604 3.51601 13.1559 3.49332 13.1471 3.47215C13.1383 3.45098 13.1255 3.43175 13.1093 3.41556L10.2008 0.505309C10.1675 0.472059 10.1237 0.454559 10.0765 0.454559C10.0293 0.454559 9.9855 0.472059 9.95225 0.505309L2.534 7.92356C2.50775 7.94981 2.492 7.98131 2.485 8.01631L1.96875 10.9598C1.95173 11.0536 1.95781 11.15 1.98647 11.2409C2.01514 11.3318 2.06552 11.4143 2.13325 11.4813C2.24875 11.5933 2.394 11.6546 2.54975 11.6546ZM3.72925 8.60256L10.0765 2.25706L11.3593 3.53981L5.012 9.88531L3.45625 10.1601L3.72925 8.60256ZM13.44 13.1246H0.56C0.25025 13.1246 0 13.3748 0 13.6846V14.3146C0 14.3916 0.063 14.4546 0.14 14.4546H13.86C13.937 14.4546 14 14.3916 14 14.3146V13.6846C14 13.3748 13.7498 13.1246 13.44 13.1246Z" fill="#1270B5" fill-opacity="0.7"/>
</svg>
