<svg width="960" height="442" viewBox="0 0 960 442" fill="none" xmlns="http://www.w3.org/2000/svg">
<path d="M1084.93 69.9024C1054.13 69.9024 1039.69 56.6512 1021.41 39.8746C1001.05 21.1843 977.964 0 932.606 0C887.248 0 864.168 21.1843 843.803 39.8746C825.526 56.6512 811.089 69.9024 780.287 69.9024C749.485 69.9024 735.048 56.6512 716.771 39.8746C696.406 21.1843 673.327 0 627.97 0C582.612 0 559.533 21.1843 539.168 39.8767C520.894 56.6533 506.456 69.9024 475.657 69.9024C444.859 69.9024 430.424 56.6512 412.147 39.8767C391.785 21.1865 368.706 0 323.35 0C277.994 0 254.916 21.1843 234.551 39.8746C216.276 56.6512 201.839 69.9024 171.039 69.9024C140.24 69.9024 125.802 56.6512 107.526 39.8746C87.1608 21.1865 64.0821 0 18.7264 0C8.39299 0 0.0210876 8.38398 0.0210876 18.7226C0.0210876 29.0613 8.39299 37.4453 18.7264 37.4453C49.5261 37.4453 63.9635 50.6965 82.2377 67.4709C102.601 86.1612 125.682 107.348 171.039 107.348C216.395 107.348 239.474 86.1634 259.839 67.4753C278.113 50.6987 292.55 37.4474 323.35 37.4474C354.148 37.4474 368.583 50.6987 386.859 67.4731C407.222 86.1633 430.301 107.35 475.657 107.35C521.012 107.35 544.091 86.1677 564.456 67.4774C582.732 50.7008 597.17 37.4496 627.97 37.4496C658.769 37.4496 673.207 50.7008 691.483 67.4753C711.848 86.1655 734.929 107.352 780.285 107.352C825.64 107.352 848.721 86.1698 869.086 67.4796C887.367 50.703 901.802 37.4517 932.606 37.4517C963.408 37.4517 977.848 50.703 996.126 67.4796C1016.49 86.1698 1039.57 107.352 1084.93 107.352C1095.26 107.352 1103.63 98.968 1103.63 88.6293C1103.64 78.2864 1095.26 69.9024 1084.93 69.9024Z" fill="#1270B5" fill-opacity="0.1"/>
<path d="M1084.91 246.227C1054.11 246.227 1039.67 232.976 1021.39 216.199C1001.03 197.509 977.945 176.325 932.587 176.325C887.229 176.325 864.148 197.509 843.783 216.199C825.507 232.976 811.069 246.227 780.267 246.227C749.466 246.227 735.028 232.976 716.75 216.199C696.387 197.509 673.31 176.325 627.95 176.325C582.59 176.325 559.514 197.509 539.149 216.201C520.874 232.978 506.437 246.227 475.637 246.227C444.84 246.227 430.407 232.976 412.128 216.201C409.794 214.059 407.461 211.917 405.095 209.804C397.382 202.922 385.557 203.606 378.684 211.321C371.81 219.041 372.491 230.877 380.201 237.757C382.436 239.75 384.639 241.774 386.842 243.796C407.205 262.484 430.284 283.668 475.637 283.668C520.993 283.668 544.072 262.486 564.437 243.796C582.713 227.019 597.15 213.768 627.95 213.768C658.75 213.768 673.187 227.019 691.464 243.793C711.829 262.484 734.91 283.67 780.265 283.67C825.621 283.67 848.702 262.488 869.067 243.798C887.345 227.021 901.783 213.77 932.587 213.77C963.389 213.77 977.828 227.021 996.107 243.798C1016.47 262.488 1039.55 283.67 1084.91 283.67C1095.24 283.67 1103.61 275.286 1103.61 264.948C1103.61 254.609 1095.24 246.227 1084.91 246.227Z" fill="#1270B5" fill-opacity="0.1"/>
<path d="M350.002 179.134C341.674 177.272 332.7 176.325 323.335 176.325C277.979 176.325 254.9 197.509 234.535 216.197C216.261 232.974 201.824 246.225 171.024 246.225C140.224 246.225 125.787 232.974 107.51 216.197C87.1476 197.507 64.0667 176.325 18.711 176.325C8.37761 176.325 0.00570679 184.709 0.00570679 195.047C0.00570679 205.386 8.37761 213.774 18.711 213.774C49.5107 213.774 63.9481 227.026 82.2223 243.8C102.585 262.49 125.666 283.677 171.024 283.677C216.38 283.677 239.458 262.492 259.823 243.802C278.098 227.026 292.535 213.774 323.335 213.774C330.056 213.774 336.11 214.398 341.844 215.679C351.919 217.932 361.927 211.582 364.179 201.49C366.432 191.397 360.084 181.388 350.002 179.134Z" fill="#1270B5" fill-opacity="0.1"/>
<path d="M1084.91 422.554C1054.11 422.554 1039.67 409.303 1021.39 392.526C1001.02 373.836 977.944 352.654 932.586 352.654C887.23 352.654 864.151 373.836 843.783 392.524C836.168 399.512 835.655 411.355 842.639 418.979C849.618 426.602 861.45 427.113 869.07 420.125C887.346 403.35 901.786 390.099 932.586 390.099C963.388 390.099 977.827 403.35 996.106 420.127C1016.47 438.818 1039.55 460 1084.91 460C1095.24 460 1103.61 451.616 1103.61 441.277C1103.61 430.936 1095.24 422.554 1084.91 422.554Z" fill="#1270B5" fill-opacity="0.1"/>
<path d="M823.673 433.62C821.106 423.605 810.923 417.57 800.9 420.14C794.576 421.764 787.825 422.556 780.266 422.556C749.464 422.556 735.026 409.305 716.748 392.528C696.385 373.838 673.306 352.654 627.949 352.654C582.591 352.654 559.512 373.838 539.147 392.53C520.873 409.307 506.435 422.556 475.636 422.556C444.838 422.556 430.403 409.305 412.126 392.528C391.764 373.84 368.685 352.654 323.329 352.654C277.973 352.654 254.895 373.838 234.53 392.528C216.255 409.305 201.818 422.556 171.018 422.556C140.219 422.556 125.781 409.305 107.505 392.528C87.1419 373.838 64.061 352.654 18.7053 352.654C8.3719 352.654 0 361.037 0 371.376C0 381.715 8.37621 390.097 18.7096 390.097C49.5093 390.097 63.9467 403.348 82.2209 420.122C102.584 438.813 125.665 459.999 171.023 459.999C216.378 459.999 239.457 438.815 259.822 420.124C278.096 403.348 292.534 390.097 323.333 390.097C354.131 390.097 368.566 403.348 386.843 420.124C407.205 438.813 430.284 459.997 475.64 459.997C520.996 459.997 544.074 438.815 564.439 420.124C582.716 403.348 597.153 390.097 627.953 390.097C658.753 390.097 673.19 403.348 691.466 420.124C711.831 438.813 734.912 459.997 780.268 459.997C790.858 459.997 800.933 458.789 810.208 456.407C820.213 453.84 826.24 443.632 823.673 433.62Z" fill="#1270B5" fill-opacity="0.1"/>
</svg>
