<svg width="780" height="460" viewBox="0 0 780 460" fill="none" xmlns="http://www.w3.org/2000/svg">
<path d="M760.928 69.9024C730.126 69.9024 715.686 56.6512 697.408 39.8746C677.045 21.1843 653.964 0 608.606 0C563.248 0 540.167 21.1843 519.802 39.8746C501.526 56.6512 487.089 69.9024 456.287 69.9024C425.485 69.9024 411.047 56.6512 392.771 39.8746C372.406 21.1843 349.327 0 303.969 0C258.612 0 235.533 21.1843 215.168 39.8767C196.894 56.6533 182.456 69.9024 151.657 69.9024C120.859 69.9024 106.424 56.6512 88.1473 39.8767C67.7845 21.1865 44.7057 0 -0.649963 0C-46.0056 0 -69.0844 21.1843 -89.4494 39.8746C-107.724 56.6512 -122.161 69.9024 -152.961 69.9024C-183.76 69.9024 -198.198 56.6512 -216.474 39.8746C-236.839 21.1865 -259.918 0 -305.274 0C-315.607 0 -323.979 8.38398 -323.979 18.7226C-323.979 29.0613 -315.607 37.4453 -305.274 37.4453C-274.474 37.4453 -260.037 50.6965 -241.762 67.4709C-221.4 86.1612 -198.319 107.348 -152.961 107.348C-107.605 107.348 -84.5263 86.1634 -64.1613 67.4753C-45.8871 50.6987 -31.4497 37.4474 -0.649963 37.4474C30.1476 37.4474 44.5829 50.6987 62.8592 67.4731C83.2221 86.1633 106.301 107.35 151.657 107.35C197.012 107.35 220.091 86.1677 240.456 67.4774C258.732 50.7008 273.17 37.4496 303.969 37.4496C334.769 37.4496 349.207 50.7008 367.483 67.4753C387.848 86.1655 410.929 107.352 456.285 107.352C501.64 107.352 524.721 86.1698 545.086 67.4796C563.367 50.703 577.802 37.4517 608.606 37.4517C639.408 37.4517 653.848 50.703 672.126 67.4796C692.489 86.1698 715.57 107.352 760.928 107.352C771.261 107.352 779.633 98.968 779.633 88.6293C779.635 78.2864 771.261 69.9024 760.928 69.9024Z" fill="#1270B5" fill-opacity="0.1"/>
<path d="M760.908 246.227C730.107 246.227 715.667 232.976 697.388 216.199C677.026 197.509 653.945 176.325 608.587 176.325C563.229 176.325 540.148 197.509 519.783 216.199C501.507 232.976 487.069 246.227 456.267 246.227C425.466 246.227 411.028 232.976 392.75 216.199C372.387 197.509 349.31 176.325 303.95 176.325C258.59 176.325 235.513 197.509 215.148 216.201C196.874 232.978 182.437 246.227 151.637 246.227C120.84 246.227 106.406 232.976 88.1279 216.201C85.7935 214.059 83.4613 211.917 81.0946 209.805C73.3823 202.922 61.5573 203.606 54.6835 211.321C47.8096 219.041 48.4907 230.877 56.2009 237.757C58.4361 239.75 60.639 241.774 62.8419 243.796C83.2048 262.484 106.284 283.668 151.637 283.668C196.993 283.668 220.072 262.486 240.437 243.796C258.713 227.019 273.15 213.768 303.95 213.768C334.75 213.768 349.187 227.019 367.464 243.794C387.829 262.484 410.91 283.67 456.265 283.67C501.621 283.67 524.702 262.488 545.067 243.798C563.345 227.021 577.783 213.77 608.587 213.77C639.389 213.77 653.828 227.021 672.107 243.798C692.47 262.488 715.551 283.67 760.908 283.67C771.242 283.67 779.614 275.286 779.614 264.948C779.614 254.609 771.24 246.227 760.908 246.227Z" fill="#1270B5" fill-opacity="0.1"/>
<path d="M26.0023 179.134C17.6735 177.272 8.70023 176.325 -0.665344 176.325C-46.021 176.325 -69.0998 197.509 -89.4648 216.197C-107.739 232.974 -122.176 246.225 -152.976 246.225C-183.776 246.225 -198.213 232.974 -216.49 216.197C-236.852 197.507 -259.933 176.325 -305.289 176.325C-315.622 176.325 -323.994 184.709 -323.994 195.047C-323.994 205.386 -315.622 213.774 -305.289 213.774C-274.489 213.774 -260.052 227.026 -241.778 243.8C-221.415 262.49 -198.334 283.677 -152.976 283.677C-107.62 283.677 -84.5417 262.492 -64.1767 243.802C-45.9025 227.026 -31.4651 213.774 -0.665344 213.774C6.05545 213.774 12.1102 214.398 17.8438 215.679C27.9185 217.932 37.9265 211.582 40.1789 201.49C42.4314 191.397 36.0835 181.388 26.0023 179.134Z" fill="#1270B5" fill-opacity="0.1"/>
<path d="M760.908 422.554C730.106 422.554 715.667 409.303 697.388 392.526C677.025 373.836 653.944 352.654 608.586 352.654C563.23 352.654 540.151 373.836 519.783 392.524C512.168 399.512 511.655 411.355 518.639 418.979C525.618 426.602 537.45 427.113 545.07 420.125C563.346 403.35 577.786 390.099 608.586 390.099C639.388 390.099 653.827 403.351 672.106 420.127C692.469 438.818 715.55 460 760.908 460C771.242 460 779.614 451.616 779.614 441.277C779.614 430.936 771.24 422.554 760.908 422.554Z" fill="#1270B5" fill-opacity="0.1"/>
<path d="M499.673 433.62C497.106 423.605 486.923 417.57 476.9 420.14C470.576 421.764 463.825 422.556 456.266 422.556C425.464 422.556 411.026 409.305 392.748 392.528C372.385 373.838 349.306 352.654 303.949 352.654C258.591 352.654 235.512 373.838 215.147 392.53C196.873 409.307 182.435 422.556 151.636 422.556C120.838 422.556 106.403 409.305 88.1264 392.528C67.7635 373.84 44.6848 352.654 -0.670929 352.654C-46.0266 352.654 -69.1054 373.838 -89.4704 392.528C-107.745 409.305 -122.182 422.556 -152.982 422.556C-183.781 422.556 -198.219 409.305 -216.495 392.528C-236.858 373.838 -259.939 352.654 -305.295 352.654C-315.628 352.654 -324 361.038 -324 371.376C-324 381.715 -315.624 390.097 -305.29 390.097C-274.491 390.097 -260.053 403.348 -241.779 420.122C-221.416 438.813 -198.335 459.999 -152.977 459.999C-107.622 459.999 -84.543 438.815 -64.1779 420.125C-45.9038 403.348 -31.4663 390.097 -0.666626 390.097C30.131 390.097 44.5662 403.348 62.8426 420.125C83.2054 438.813 106.284 459.997 151.64 459.997C196.996 459.997 220.074 438.815 240.439 420.125C258.716 403.348 273.153 390.097 303.953 390.097C334.753 390.097 349.19 403.348 367.466 420.125C387.831 438.813 410.912 459.997 456.268 459.997C466.858 459.997 476.933 458.789 486.208 456.407C496.213 453.84 502.24 443.632 499.673 433.62Z" fill="#1270B5" fill-opacity="0.1"/>
</svg>
