<svg width="14" height="15" viewBox="0 0 14 15" fill="none" xmlns="http://www.w3.org/2000/svg">
<path d="M7.00002 3.70526C5.48172 3.70526 4.24622 4.94191 4.24622 6.46161H5.64622C5.64622 5.71402 6.25382 5.10656 7.00002 5.10656C7.74622 5.10656 8.35382 5.71402 8.35382 6.46161C8.35382 6.8806 8.01712 7.18468 7.50262 7.60086C7.32412 7.7459 7.15542 7.88393 7.01892 8.02055C6.32032 8.7191 6.30002 9.46108 6.30002 9.54376V10.0111H7.70002L7.69932 9.56758C7.70002 9.55637 7.72242 9.29713 8.00802 9.01197C8.11302 8.90687 8.24532 8.80177 8.38252 8.69107C8.92782 8.24896 9.75312 7.58125 9.75312 6.46161C9.75382 4.94191 8.51832 3.70526 7.00002 3.70526ZM6.30002 10.7117H7.70002V12.113H6.30002V10.7117Z" fill="white"/>
<path d="M7 0.90271C3.1402 0.90271 0 4.04581 0 7.90918C0 11.7725 3.1402 14.9156 7 14.9156C10.8598 14.9156 14 11.7725 14 7.90918C14 4.04581 10.8598 0.90271 7 0.90271ZM7 13.5144C3.9123 13.5144 1.4 10.9997 1.4 7.90918C1.4 4.81863 3.9123 2.304 7 2.304C10.0877 2.304 12.6 4.81863 12.6 7.90918C12.6 10.9997 10.0877 13.5144 7 13.5144Z" fill="white"/>
</svg>
