<svg width="166" height="43" viewBox="0 0 166 43" fill="none" xmlns="http://www.w3.org/2000/svg">
<path d="M82.5385 18.0185H80.1385L79.9385 14.1185L79.4785 9.15852H79.2785L76.3985 16.6585H74.2985L71.6785 9.15852H71.4985L70.9985 13.8585L70.7185 18.0185H68.4385L69.7385 5.13852H72.8585L73.3785 7.03852L75.4185 13.1385H75.5985L77.7385 7.03852L78.3185 5.13852H81.3785L82.5385 18.0185ZM91.6648 4.95852C93.4781 4.95852 94.8715 5.51186 95.8448 6.61852C96.8315 7.71186 97.3248 9.27186 97.3248 11.2985C97.3248 13.5119 96.7915 15.2185 95.7248 16.4185C94.6581 17.6185 93.1515 18.2185 91.2048 18.2185C89.4048 18.2185 88.0115 17.6585 87.0248 16.5385C86.0515 15.4052 85.5648 13.8052 85.5648 11.7385C85.5648 9.56519 86.0915 7.89186 87.1448 6.71852C88.2115 5.54519 89.7181 4.95852 91.6648 4.95852ZM91.4248 7.13852C90.3581 7.13852 89.5848 7.47186 89.1048 8.13852C88.6248 8.80519 88.3848 9.89186 88.3848 11.3985C88.3848 13.1185 88.6181 14.3452 89.0848 15.0785C89.5648 15.8119 90.3515 16.1785 91.4448 16.1785C92.5115 16.1785 93.2848 15.8452 93.7648 15.1785C94.2448 14.4985 94.4848 13.3919 94.4848 11.8585C94.4848 10.1652 94.2448 8.95852 93.7648 8.23852C93.2981 7.50519 92.5181 7.13852 91.4248 7.13852ZM105.685 5.11852C107.032 5.11852 108.065 5.45852 108.785 6.13852C109.518 6.81852 109.885 7.79186 109.885 9.05852C109.885 10.0319 109.672 10.8852 109.245 11.6185C108.818 12.3385 108.205 12.8985 107.405 13.2985C106.618 13.6985 105.692 13.8985 104.625 13.8985H103.345V13.9385L103.465 18.0185H100.745L100.885 14.1785L100.745 5.13852L105.685 5.11852ZM105.225 11.9185C106.452 11.5719 107.065 10.6985 107.065 9.29852C107.065 8.57852 106.878 8.04519 106.505 7.69852C106.145 7.33852 105.585 7.14519 104.825 7.11852L103.465 7.19852L103.385 11.8385L105.225 11.9185ZM118.392 4.97852C119.646 4.97852 120.772 5.23852 121.772 5.75852L121.292 8.01852L121.072 8.11852C120.672 7.83852 120.232 7.61852 119.752 7.45852C119.272 7.29852 118.779 7.21852 118.272 7.21852C116.152 7.21852 115.092 8.61186 115.092 11.3985C115.092 12.9052 115.366 14.0385 115.912 14.7985C116.472 15.5452 117.286 15.9185 118.352 15.9185C118.846 15.9185 119.352 15.8452 119.872 15.6985C120.406 15.5385 120.886 15.3252 121.312 15.0585L121.552 15.1985L121.332 17.4985C120.319 17.9652 119.252 18.1985 118.132 18.1985C116.212 18.1985 114.746 17.6385 113.732 16.5185C112.732 15.3985 112.232 13.7919 112.232 11.6985C112.232 9.56519 112.766 7.91186 113.832 6.73852C114.912 5.56519 116.432 4.97852 118.392 4.97852ZM130.527 11.2185C131.954 13.2052 133.6 15.2852 135.467 17.4585L135.427 17.7585C134.68 17.9452 133.8 18.0985 132.787 18.2185L132.467 18.0585C130.72 15.7385 129.167 13.5119 127.807 11.3785L127.767 13.9385L127.867 18.0185H125.167L125.307 14.1785L125.167 5.13852H127.907L127.807 11.1185L131.427 6.37852L132.167 5.13852H135.087L130.527 11.2185ZM143.243 4.95852C145.056 4.95852 146.45 5.51186 147.423 6.61852C148.41 7.71186 148.903 9.27186 148.903 11.2985C148.903 13.5119 148.37 15.2185 147.303 16.4185C146.236 17.6185 144.73 18.2185 142.783 18.2185C140.983 18.2185 139.59 17.6585 138.603 16.5385C137.63 15.4052 137.143 13.8052 137.143 11.7385C137.143 9.56519 137.67 7.89186 138.723 6.71852C139.79 5.54519 141.296 4.95852 143.243 4.95852ZM143.003 7.13852C141.936 7.13852 141.163 7.47186 140.683 8.13852C140.203 8.80519 139.963 9.89186 139.963 11.3985C139.963 13.1185 140.196 14.3452 140.663 15.0785C141.143 15.8119 141.93 16.1785 143.023 16.1785C144.09 16.1785 144.863 15.8452 145.343 15.1785C145.823 14.4985 146.063 13.3919 146.063 11.8585C146.063 10.1652 145.823 8.95852 145.343 8.23852C144.876 7.50519 144.096 7.13852 143.003 7.13852ZM152.443 14.1785L152.303 5.21852L155.063 5.07852L154.883 13.8985H155.083L160.303 5.13852H163.183L163.043 13.9385L163.143 18.0185H160.423L160.543 14.1785L160.563 9.25852H160.383L155.123 18.0185H152.303L152.443 14.1785ZM161.043 2.21852C160.737 2.84519 160.263 3.33186 159.623 3.67852C158.997 4.01186 158.257 4.17852 157.403 4.17852C156.563 4.17852 155.837 4.01186 155.223 3.67852C154.61 3.34519 154.15 2.85852 153.843 2.21852L155.183 1.29852H155.483C155.657 1.77852 155.897 2.11852 156.203 2.31852C156.51 2.51852 156.93 2.61852 157.463 2.61852C157.997 2.61852 158.41 2.52519 158.703 2.33852C159.01 2.13852 159.25 1.79186 159.423 1.29852H159.683L161.043 2.21852Z" fill="black"/>
<path d="M77.6068 35.6799V39.0079L76.3748 39.1199L76.1348 37.0399H69.2708L69.0468 39.0079L67.7988 39.1199V35.6799H68.6468C69.0948 35.4345 69.4468 35.0612 69.7028 34.5599C69.9588 34.0585 70.1668 33.3492 70.3268 32.4319C70.4868 31.5145 70.6414 30.2239 70.7908 28.5599L70.9668 26.7679H76.2628L76.1988 33.8079L76.2308 35.6799H77.6068ZM74.6788 33.9519L74.6148 28.0319H72.3108L72.2308 28.8479C72.0494 30.8959 71.8201 32.4319 71.5428 33.4559C71.2654 34.4692 70.8708 35.2105 70.3588 35.6799H74.6308L74.6788 33.9519ZM84.3315 26.6399C85.7502 26.6399 86.8435 27.0772 87.6115 27.9519C88.3795 28.8265 88.7635 30.0745 88.7635 31.6959C88.7635 33.4452 88.3529 34.7999 87.5315 35.7599C86.7102 36.7092 85.5422 37.1839 84.0275 37.1839C82.6195 37.1839 81.5315 36.7359 80.7635 35.8399C80.0062 34.9332 79.6275 33.6532 79.6275 31.9999C79.6275 30.2825 80.0329 28.9599 80.8435 28.0319C81.6649 27.1039 82.8275 26.6399 84.3315 26.6399ZM84.2035 27.9839C83.2329 27.9839 82.5075 28.2985 82.0275 28.9279C81.5582 29.5465 81.3235 30.5065 81.3235 31.8079C81.3235 33.2265 81.5529 34.2665 82.0115 34.9279C82.4809 35.5785 83.2009 35.9039 84.1715 35.9039C85.1529 35.9039 85.8782 35.5892 86.3475 34.9599C86.8169 34.3305 87.0515 33.3492 87.0515 32.0159C87.0515 30.6185 86.8169 29.5999 86.3475 28.9599C85.8889 28.3092 85.1742 27.9839 84.2035 27.9839ZM93.5295 33.8079L93.5935 37.0399H91.9455L92.0255 33.9519L91.9455 26.7679H93.6095L93.5295 33.8079ZM95.3695 31.5999C96.6069 33.2639 98.0202 34.9599 99.6095 36.6879L99.5935 36.8799C99.1242 37.0079 98.5962 37.1092 98.0095 37.1839L97.8015 37.0879C96.1802 35.1039 94.8042 33.3012 93.6735 31.6799V31.5679L96.8735 27.6959L97.5135 26.7679H99.3215L95.3695 31.5999ZM107.932 26.9119L107.836 28.1599L105.98 28.0639H105.116L105.036 33.8079L105.116 37.0399H103.452L103.548 33.9519L103.468 28.0639H102.604L100.716 28.1599L100.604 28.0159L100.732 26.7679H107.836L107.932 26.9119ZM113.841 26.6399C115.26 26.6399 116.353 27.0772 117.121 27.9519C117.889 28.8265 118.273 30.0745 118.273 31.6959C118.273 33.4452 117.862 34.7999 117.041 35.7599C116.22 36.7092 115.052 37.1839 113.537 37.1839C112.129 37.1839 111.041 36.7359 110.273 35.8399C109.516 34.9332 109.137 33.6532 109.137 31.9999C109.137 30.2825 109.542 28.9599 110.353 28.0319C111.174 27.1039 112.337 26.6399 113.841 26.6399ZM113.713 27.9839C112.742 27.9839 112.017 28.2985 111.537 28.9279C111.068 29.5465 110.833 30.5065 110.833 31.8079C110.833 33.2265 111.062 34.2665 111.521 34.9279C111.99 35.5785 112.71 35.9039 113.681 35.9039C114.662 35.9039 115.388 35.5892 115.857 34.9599C116.326 34.3305 116.561 33.3492 116.561 32.0159C116.561 30.6185 116.326 29.5999 115.857 28.9599C115.398 28.3092 114.684 27.9839 113.713 27.9839ZM124.896 26.7519C125.93 26.7519 126.725 27.0185 127.28 27.5519C127.845 28.0745 128.128 28.8319 128.128 29.8239C128.128 30.9759 127.77 31.8879 127.056 32.5599C126.352 33.2319 125.381 33.5679 124.144 33.5679H123.008V33.8079L123.088 37.0399H121.408L121.52 33.9519L121.408 26.7679L124.896 26.7519ZM124.624 32.2879C125.21 32.1705 125.653 31.9199 125.952 31.5359C126.261 31.1412 126.416 30.6185 126.416 29.9679C126.416 29.3279 126.25 28.8532 125.92 28.5439C125.6 28.2345 125.109 28.0692 124.448 28.0479L123.088 28.0959L123.024 32.2559L124.624 32.2879Z" fill="black"/>
<path d="M58.0885 7.76494C56.4393 7.76494 55.6662 7.05544 54.6875 6.15719C53.5972 5.15647 52.3614 4.02222 49.9329 4.02222C47.5043 4.02222 46.2685 5.15647 45.1781 6.15719C44.1996 7.05544 43.4266 7.76494 41.7774 7.76494C40.1282 7.76494 39.3552 7.05544 38.3766 6.15719C37.2862 5.15647 36.0505 4.02222 33.622 4.02222C31.1934 4.02222 29.9577 5.15647 28.8674 6.1573C27.8889 7.05555 27.1159 7.76494 25.4668 7.76494C23.8179 7.76494 23.045 7.05544 22.0664 6.1573C20.9761 5.15659 19.7405 4.02222 17.312 4.02222C14.8836 4.02222 13.6479 5.15647 12.5575 6.15719C11.5791 7.05544 10.8061 7.76494 9.15698 7.76494C7.5079 7.76494 6.73489 7.05544 5.75634 6.15719C4.66595 5.15659 3.43026 4.02222 1.00183 4.02222C0.448554 4.02222 0.000305176 4.47111 0.000305176 5.02467C0.000305176 5.57822 0.448554 6.02711 1.00183 6.02711C2.65091 6.02711 3.42392 6.73661 4.40236 7.63475C5.49263 8.63547 6.72843 9.76984 9.15698 9.76984C11.5854 9.76984 12.8211 8.63558 13.9115 7.63498C14.8899 6.73673 15.6629 6.02723 17.312 6.02723C18.961 6.02723 19.7339 6.73673 20.7124 7.63487C21.8027 8.63558 23.0384 9.76995 25.4668 9.76995C27.8953 9.76995 29.131 8.63582 30.2213 7.6351C31.1999 6.73685 31.9729 6.02735 33.622 6.02735C35.2711 6.02735 36.0441 6.73685 37.0226 7.63498C38.113 8.6357 39.3488 9.77007 41.7773 9.77007C44.2057 9.77007 45.4415 8.63593 46.5319 7.63521C47.5107 6.73696 48.2836 6.02746 49.9329 6.02746C51.5821 6.02746 52.3552 6.73696 53.3339 7.63521C54.4241 8.63593 55.6599 9.77007 58.0885 9.77007C58.6418 9.77007 59.09 9.32117 59.09 8.76762C59.0901 8.21383 58.6418 7.76494 58.0885 7.76494Z" fill="white"/>
<path d="M58.0882 17.2057C56.439 17.2057 55.6658 16.4962 54.6872 15.598C53.5969 14.5973 52.3611 13.463 49.9326 13.463C47.504 13.463 46.2682 14.5973 45.1778 15.598C44.1993 16.4962 43.4262 17.2057 41.7771 17.2057C40.1279 17.2057 39.3548 16.4962 38.3762 15.598C37.2859 14.5973 36.0503 13.463 33.6217 13.463C31.193 13.463 29.9574 14.5973 28.867 15.5981C27.8886 16.4963 27.1156 17.2057 25.4665 17.2057C23.8175 17.2057 23.0448 16.4962 22.0661 15.5981C21.9411 15.4834 21.8162 15.3687 21.6895 15.2556C21.2766 14.8871 20.6434 14.9237 20.2754 15.3368C19.9074 15.7501 19.9438 16.3838 20.3567 16.7522C20.4763 16.859 20.5943 16.9673 20.7122 17.0755C21.8025 18.0761 23.0382 19.2104 25.4665 19.2104C27.8949 19.2104 29.1306 18.0763 30.221 17.0755C31.1996 16.1773 31.9726 15.4678 33.6217 15.4678C35.2707 15.4678 36.0438 16.1773 37.0223 17.0754C38.1127 18.0761 39.3485 19.2105 41.7769 19.2105C44.2054 19.2105 45.4412 18.0764 46.5316 17.0757C47.5102 16.1774 48.2832 15.4679 49.9326 15.4679C51.5817 15.4679 52.3549 16.1774 53.3335 17.0757C54.4238 18.0764 55.6596 19.2105 58.0882 19.2105C58.6414 19.2105 59.0897 18.7616 59.0897 18.2081C59.0897 17.6545 58.6413 17.2057 58.0882 17.2057Z" fill="white"/>
<path d="M18.7398 13.6134C18.2939 13.5137 17.8134 13.463 17.312 13.463C14.8835 13.463 13.6478 14.5973 12.5574 15.5979C11.579 16.4961 10.806 17.2056 9.15692 17.2056C7.50784 17.2056 6.73483 16.4961 5.75627 15.5979C4.666 14.5971 3.4302 13.463 1.00176 13.463C0.448493 13.463 0.000244141 13.9119 0.000244141 14.4655C0.000244141 15.019 0.448493 15.4681 1.00176 15.4681C2.65085 15.4681 3.42386 16.1776 4.40229 17.0758C5.49256 18.0765 6.72837 19.2109 9.15692 19.2109C11.5854 19.2109 12.821 18.0766 13.9114 17.0759C14.8899 16.1776 15.6629 15.4681 17.312 15.4681C17.6718 15.4681 17.996 15.5015 18.303 15.5701C18.8424 15.6907 19.3782 15.3508 19.4988 14.8104C19.6194 14.27 19.2796 13.7341 18.7398 13.6134Z" fill="white"/>
<path d="M58.0882 36.0875C56.439 36.0875 55.6659 35.378 54.6872 34.4798C53.5969 33.479 52.3611 32.3449 49.9326 32.3449C47.504 32.3449 46.2682 33.4792 45.1778 34.4798C44.1993 35.378 43.4263 36.0875 41.7771 36.0875C40.1279 36.0875 39.3549 35.378 38.3762 34.4798C37.2859 33.479 36.0503 32.3449 33.6217 32.3449C31.193 32.3449 29.9574 33.4792 28.8671 34.48C27.8886 35.3782 27.1156 36.0876 25.4665 36.0876C23.8176 36.0876 23.0447 35.3781 22.0661 34.48C20.9758 33.4793 19.7402 32.3449 17.3117 32.3449C14.8833 32.3449 13.6476 33.4792 12.5572 34.4798C11.5788 35.378 10.8058 36.0875 9.15667 36.0875C8.6034 36.0875 8.15515 36.5364 8.15515 37.09C8.15515 37.6436 8.6034 38.0924 9.15667 38.0924C11.5851 38.0924 12.8208 36.9582 13.9112 35.9576C14.8896 35.0593 15.6626 34.3498 17.3117 34.3498C18.9607 34.3498 19.7336 35.0593 20.7121 35.9574C21.8024 36.9582 23.0381 38.0925 25.4665 38.0925C27.895 38.0925 29.1306 36.9584 30.221 35.9577C31.1996 35.0594 31.9726 34.3499 33.6217 34.3499C35.2708 34.3499 36.0438 35.0594 37.0223 35.9577C38.1127 36.9583 39.3485 38.0925 41.777 38.0925C44.2054 38.0925 45.4412 36.9584 46.5316 35.9577C47.5104 35.0594 48.2833 34.3499 49.9326 34.3499C51.5818 34.3499 52.3549 35.0594 53.3336 35.9577C54.4238 36.9584 55.6596 38.0925 58.0882 38.0925C58.6415 38.0925 59.0897 37.6436 59.0897 37.0901C59.0897 36.5364 58.6413 36.0875 58.0882 36.0875Z" fill="white"/>
<path d="M6.81255 35.3716C6.44763 35.1143 6.1119 34.8061 5.75632 34.4799C4.66604 33.4792 3.43023 32.3448 1.00177 32.3448C0.448497 32.3448 0.000244141 32.7937 0.000244141 33.3472C0.000244141 33.9008 0.448497 34.3497 1.00177 34.3497C2.65087 34.3497 3.42388 35.0592 4.40245 35.9575C4.78907 36.3122 5.18862 36.679 5.65903 37.0106C5.83434 37.1342 6.0355 37.1936 6.23493 37.1936C6.54965 37.1936 6.85976 37.0455 7.0548 36.7683C7.37322 36.3157 7.26473 35.6904 6.81255 35.3716Z" fill="white"/>
<path d="M58.0883 26.6467C56.4391 26.6467 55.6659 25.9371 54.6872 25.0389C53.597 24.0382 52.3612 22.904 49.9326 22.904C47.5041 22.904 46.2684 24.0382 45.1779 25.0388C44.7702 25.4129 44.7427 26.047 45.1166 26.4552C45.4903 26.8634 46.1238 26.8907 46.5318 26.5166C47.5104 25.6184 48.2835 24.9089 49.9326 24.9089C51.5818 24.9089 52.3549 25.6184 53.3336 26.5167C54.4239 27.5174 55.6597 28.6516 58.0883 28.6516C58.6415 28.6516 59.0898 28.2027 59.0898 27.6491C59.0898 27.0954 58.6414 26.6467 58.0883 26.6467Z" fill="white"/>
<path d="M44.1012 27.2391C43.9637 26.7029 43.4185 26.3798 42.8819 26.5174C42.5433 26.6043 42.1818 26.6467 41.7771 26.6467C40.1279 26.6467 39.3549 25.9372 38.3762 25.039C37.2859 24.0383 36.0502 22.904 33.6217 22.904C31.1931 22.904 29.9574 24.0383 28.8671 25.0391C27.8886 25.9374 27.1156 26.6467 25.4665 26.6467C23.8176 26.6467 23.0447 25.9372 22.0661 25.039C20.9758 24.0384 19.7402 22.904 17.3117 22.904C14.8833 22.904 13.6476 24.0383 12.5572 25.039C11.5788 25.9372 10.8058 26.6467 9.15667 26.6467C7.50759 26.6467 6.73458 25.9372 5.75603 25.039C4.66576 24.0383 3.42996 22.904 1.00152 22.904C0.448249 22.904 0 23.3529 0 23.9065C0 24.46 0.44848 24.9088 1.00175 24.9088C2.65083 24.9088 3.42384 25.6183 4.40228 26.5164C5.49255 27.5172 6.72835 28.6515 9.15691 28.6515C11.5853 28.6515 12.821 27.5173 13.9114 26.5166C14.8899 25.6183 15.6629 24.9088 17.3119 24.9088C18.9609 24.9088 19.7338 25.6183 20.7124 26.5166C21.8026 27.5172 23.0383 28.6514 25.4668 28.6514C27.8952 28.6514 29.1309 27.5173 30.2213 26.5166C31.1998 25.6183 31.9728 24.9088 33.6219 24.9088C35.271 24.9088 36.044 25.6183 37.0226 26.5166C38.1129 27.5172 39.3487 28.6514 41.7772 28.6514C42.3442 28.6514 42.8836 28.5867 43.3802 28.4592C43.9159 28.3217 44.2386 27.7752 44.1012 27.2391Z" fill="white"/>
</svg>
