<svg width="13" height="15" viewBox="0 0 13 15" fill="none" xmlns="http://www.w3.org/2000/svg">
<path d="M11.3784 0.877686H4.08108C3.651 0.877686 3.23853 1.02532 2.93442 1.28811C2.63031 1.55091 2.45946 1.90733 2.45946 2.27898V3.68027H4.08108V2.27898H11.3784V13.4893H4.08108V12.088H2.45946V13.4893C2.45946 13.861 2.63031 14.2174 2.93442 14.4802C3.23853 14.743 3.651 14.8906 4.08108 14.8906H11.3784C11.8085 14.8906 12.2209 14.743 12.525 14.4802C12.8292 14.2174 13 13.861 13 13.4893V2.27898C13 1.90733 12.8292 1.55091 12.525 1.28811C12.2209 1.02532 11.8085 0.877686 11.3784 0.877686Z" fill="white"/>
<path d="M4.27333 10.0402L3.33333 10.887L0 7.88416L3.33333 4.88135L4.27333 5.72814L2.55333 7.28359H9V8.48472H2.55333L4.27333 10.0402Z" fill="white"/>
</svg>
