<svg width="15" height="16" viewBox="0 0 15 16" fill="none" xmlns="http://www.w3.org/2000/svg">
<path d="M7.54681 5.0744C5.71869 5.0744 4.26556 6.52886 4.26556 8.35867C4.26556 10.1885 5.71869 11.6429 7.54681 11.6429C9.37494 11.6429 10.8281 10.1885 10.8281 8.35867C10.8281 6.52886 9.37494 5.0744 7.54681 5.0744ZM7.54681 10.7046C6.23431 10.7046 5.20306 9.67238 5.20306 8.35867C5.20306 7.04496 6.23431 6.01277 7.54681 6.01277C8.85931 6.01277 9.89056 7.04496 9.89056 8.35867C9.89056 9.67238 8.85931 10.7046 7.54681 10.7046Z" fill="white"/>
<path d="M14.4375 6.81037L13.125 6.3881L12.8438 5.68433L13.5 4.46445C13.6406 4.18294 13.5938 3.8076 13.3594 3.57301L12.2344 2.44697C12 2.21238 11.625 2.16546 11.3438 2.30621L10.125 2.96307L9.42188 2.68156L9 1.36785C8.90625 1.08634 8.625 0.851746 8.29688 0.851746H6.70312C6.375 0.851746 6.09375 1.08634 6.04688 1.41477L5.625 2.72848C5.34375 2.7754 5.10938 2.86923 4.875 3.00999L3.65625 2.35313C3.375 2.21238 3 2.25929 2.76562 2.49389L1.64062 3.61993C1.40625 3.85452 1.35937 4.22986 1.5 4.51137L2.10938 5.68433C2.01562 5.91892 1.92188 6.20043 1.82812 6.43502L0.515625 6.85729C0.234375 6.95112 0 7.23263 0 7.56106V9.15628C0 9.48471 0.234375 9.76622 0.5625 9.86006L1.875 10.2823L2.15625 10.9861L1.5 12.206C1.35937 12.4875 1.40625 12.8628 1.64062 13.0974L2.76562 14.2235C3 14.4581 3.375 14.505 3.65625 14.3642L4.875 13.7074L5.57812 13.9889L6 15.3495C6.09375 15.631 6.375 15.8656 6.70312 15.8656H8.29688C8.625 15.8656 8.90625 15.631 9 15.3495L9.42188 13.9889L10.125 13.7074L11.3438 14.3642C11.625 14.505 12 14.4581 12.2344 14.2235L13.3594 13.0974C13.5938 12.8628 13.6406 12.4875 13.5 12.206L12.8438 10.9861L13.125 10.2823L14.4844 9.86006C14.7656 9.76622 15 9.48471 15 9.15628V7.56106C15 7.23263 14.7656 6.90421 14.4375 6.81037ZM14.0625 9.01553L12.375 9.53163L12.3281 9.76622L11.9062 10.7515L11.7656 10.9861L12.6094 12.5344L11.6719 13.4728L10.125 12.6282L9.89062 12.769C9.5625 12.9567 9.23438 13.0974 8.90625 13.1913L8.67188 13.2382L8.15625 14.9272H6.84375L6.32812 13.2382L6.09375 13.1913L5.10938 12.769L4.875 12.6282L3.32813 13.4728L2.39062 12.5344L3.23437 10.9861L3.09375 10.7515C2.90625 10.4231 2.76562 10.0947 2.67188 9.76622L2.625 9.53163L0.9375 9.01553V7.70182L2.53125 7.23263L2.625 6.99804C2.71875 6.6227 2.85938 6.29427 3.04688 5.96584L3.1875 5.73125L2.39062 4.18294L3.32813 3.24458L4.82812 4.08911L5.0625 3.94835C5.39062 3.76068 5.71875 3.61993 6.09375 3.52609L6.32812 3.43225L6.84375 1.79011H8.15625L8.67188 3.43225L8.90625 3.52609C9.23438 3.61993 9.5625 3.76068 9.89062 3.94835L10.125 4.08911L11.6719 3.24458L12.6094 4.18294L11.7656 5.73125L11.9062 5.96584C12.0938 6.29427 12.2344 6.6227 12.3281 6.95112L12.375 7.18572L14.0625 7.70182V9.01553Z" fill="white"/>
</svg>
