<svg width="38" height="38" viewBox="0 0 38 38" fill="none" xmlns="http://www.w3.org/2000/svg">
<path d="M25.9445 15.6546C25.938 15.6351 25.9301 15.6161 25.9211 15.5976C25.9106 15.5656 25.8977 15.5345 25.8825 15.5045C25.869 15.4842 25.8544 15.4648 25.8388 15.4462C25.8222 15.421 25.8038 15.397 25.7837 15.3746C25.7649 15.358 25.7452 15.3423 25.7248 15.3278C25.7046 15.3095 25.6835 15.2924 25.6614 15.2765L19.3281 11.4765C19.1274 11.3559 18.8765 11.3559 18.6758 11.4765L12.3425 15.2765C12.319 15.2919 12.2968 15.309 12.276 15.3278C12.2553 15.3423 12.2354 15.358 12.2164 15.3746C12.1967 15.397 12.1785 15.4207 12.162 15.4456C12.1459 15.4642 12.1311 15.4839 12.1176 15.5045C12.1027 15.5337 12.0901 15.5639 12.0796 15.595C12.0706 15.6147 12.0625 15.6348 12.0556 15.6552C12.0407 15.7086 12.0333 15.7638 12.0334 15.8192V22.1526C12.0335 22.3749 12.15 22.5808 12.3406 22.6953L18.6739 26.4953L18.6808 26.4985L18.6878 26.5035C18.7211 26.5208 18.7558 26.5351 18.7917 26.546C18.8062 26.551 18.8202 26.5593 18.8354 26.5637C18.9432 26.5932 19.057 26.5932 19.1647 26.5637C19.1799 26.5593 19.1938 26.551 19.2084 26.546C19.2443 26.5351 19.279 26.5208 19.3123 26.5035L19.3192 26.4985L19.3262 26.4953L25.6595 22.6953C25.8501 22.5808 25.9666 22.3749 25.9667 22.1526V15.8192C25.9668 15.7637 25.9592 15.7082 25.9445 15.6546ZM19 12.7577L20.9355 13.9192L15.8334 16.9808L13.8979 15.8192L19 12.7577ZM18.3667 24.8334L13.3001 21.7935V16.9377L18.3667 19.9777V24.8334ZM19 18.8808L17.0646 17.7192L22.1667 14.6577L24.1022 15.8192L19 18.8808ZM24.7 21.7941L19.6334 24.8341V19.9777L24.7 16.9377V21.7941Z" fill="white"/>
<path d="M19.5067 0.239258C19.2765 -0.0405959 18.863 -0.0807333 18.5832 0.149483C18.5504 0.176399 18.5203 0.206483 18.4934 0.239258L16.5934 2.77259L17.6067 3.53258L18.3667 2.51925V7.58591H19.6334V2.51925L20.3934 3.53258L21.4067 2.77259L19.5067 0.239258Z" fill="white"/>
<path d="M20.3934 34.4392L19.6334 35.4525V30.3858H18.3667V35.4525L17.6067 34.4392L16.5934 35.1992L18.4934 37.7325C18.7032 38.0124 19.1002 38.069 19.38 37.8592C19.428 37.8231 19.4707 37.7805 19.5067 37.7325L21.4067 35.1992L20.3934 34.4392Z" fill="white"/>
<path d="M19.6333 8.85255H18.3666V10.1192H19.6333V8.85255Z" fill="white"/>
<path d="M19.6333 27.8525H18.3666V29.1192H19.6333V27.8525Z" fill="white"/>
<path d="M7.60003 18.3526H2.53337L3.54671 17.5926L2.78671 16.5792L0.25338 18.4792C-0.0264736 18.6891 -0.0831568 19.086 0.126714 19.3659C0.162734 19.4139 0.205405 19.4565 0.25338 19.4926L2.78671 21.3925L3.54671 20.3792L2.53337 19.6192H7.60003V18.3526Z" fill="white"/>
<path d="M37.8733 18.6059C37.8373 18.5579 37.7946 18.5152 37.7467 18.4792L35.2133 16.5792L34.4533 17.5926L35.4667 18.3526H30.4V19.6192H35.4667L34.4533 20.3792L35.2133 21.3925L37.7467 19.4926C38.0265 19.2827 38.0832 18.8857 37.8733 18.6059Z" fill="white"/>
<path d="M10.1334 18.3526H8.8667V19.6192H10.1334V18.3526Z" fill="white"/>
<path d="M29.1334 18.3526H27.8668V19.6192H29.1334V18.3526Z" fill="white"/>
<path d="M11.3868 10.4771L7.80464 6.89496L9.058 7.07356L9.23724 5.81956L6.10288 5.36926C5.75692 5.31788 5.43479 5.55673 5.38341 5.90276C5.37423 5.96443 5.37423 6.02713 5.38341 6.08872L5.83118 9.22308L7.08518 9.04385L6.90658 7.79049L10.4887 11.3726L11.3868 10.4771Z" fill="white"/>
<path d="M32.6154 31.8831L32.1676 28.7487L30.9123 28.9292L31.0909 30.1826L27.5088 26.6004L26.6133 27.496L30.1954 31.0781L28.9433 30.8982L28.7641 32.1522L31.8984 32.6C31.9282 32.6043 31.9583 32.6064 31.9884 32.6063C32.3381 32.6064 32.6217 32.3228 32.6218 31.9731C32.6219 31.943 32.6196 31.9129 32.6154 31.8831Z" fill="white"/>
<path d="M12.2826 11.3731L11.387 12.2687L12.2826 13.1644L13.1783 12.2687L12.2826 11.3731Z" fill="white"/>
<path d="M25.7178 24.8073L24.8221 25.703L25.7178 26.5987L26.6135 25.703L25.7178 24.8073Z" fill="white"/>
<path d="M7.80208 31.0768L11.3842 27.4947L10.4912 26.5992L6.90908 30.1813L7.08768 28.9279L5.83368 28.7487L5.38338 31.8831C5.33375 32.2292 5.5741 32.5502 5.92037 32.5999C5.95022 32.6042 5.9803 32.6063 6.01038 32.6063C6.04047 32.6064 6.07055 32.6043 6.10032 32.6L9.23468 32.1522L9.05544 30.8982L7.80208 31.0768Z" fill="white"/>
<path d="M32.4349 5.55101C32.2944 5.40906 32.0947 5.34249 31.8972 5.37178L28.7628 5.81954L28.942 7.07354L30.1954 6.89494L26.6133 10.4771L27.5088 11.3726L31.0909 7.79047L30.9123 9.04257L32.1663 9.22307L32.6141 6.08871C32.6424 5.89127 32.576 5.69208 32.4349 5.55101Z" fill="white"/>
<path d="M12.2832 24.8079L11.3876 25.7036L12.2832 26.5992L13.1789 25.7036L12.2832 24.8079Z" fill="white"/>
<path d="M25.7179 11.3708L24.8223 12.2665L25.7179 13.1622L26.6136 12.2665L25.7179 11.3708Z" fill="white"/>
</svg>
