<svg width="38" height="38" viewBox="0 0 38 38" fill="none" xmlns="http://www.w3.org/2000/svg">
<path d="M24.6835 2.47064H25.9177V3.70599H24.6835V2.47064Z" fill="white"/>
<path d="M18.3169 5.62257L19.1892 4.74947L20.0615 5.62257L19.1892 6.49568L18.3169 5.62257Z" fill="white"/>
<path d="M33.2919 22.5039L27.4413 25.8856C27.1454 25.5939 26.7798 25.3829 26.3793 25.2728L17.9733 23.0184C17.5328 22.9007 17.0718 22.8817 16.6231 22.9628L11.1076 23.9653V22.8535C11.1076 22.6897 11.0426 22.5326 10.9269 22.4167C10.8111 22.3009 10.6542 22.2358 10.4905 22.2358H4.31962C4.15596 22.2358 3.999 22.3009 3.88327 22.4167C3.76755 22.5326 3.70253 22.6897 3.70253 22.8535V23.4711H0.617089C0.453427 23.4711 0.296468 23.5362 0.180741 23.652C0.0650145 23.7679 0 23.925 0 24.0888V35.2067C0 35.3705 0.0650145 35.5276 0.180741 35.6434C0.296468 35.7593 0.453427 35.8243 0.617089 35.8243H3.70253V36.442C3.70253 36.6058 3.76755 36.7629 3.88327 36.8788C3.999 36.9946 4.15596 37.0597 4.31962 37.0597H10.4905C10.6542 37.0597 10.8111 36.9946 10.9269 36.8788C11.0426 36.7629 11.1076 36.6058 11.1076 36.442V34.6613L20.6564 35.7237C21.3627 35.8013 22.0741 35.6334 22.6712 35.2481L35.7603 26.7861C36.1373 26.571 36.4504 26.2594 36.6672 25.8831C36.8841 25.5069 36.9971 25.0797 36.9945 24.6453C36.9947 24.2115 36.8808 23.7853 36.6642 23.4096C36.4477 23.0338 36.1361 22.7218 35.7608 22.5048C35.3855 22.2878 34.9598 22.1735 34.5264 22.1735C34.093 22.1734 33.6673 22.2876 33.2919 22.5045V22.5039ZM1.23418 34.589V24.7065H3.70253V34.589H1.23418ZM9.87342 35.8243H4.93671V23.4711H9.87342V35.8243ZM35.1167 25.7318L22.0011 34.2104C21.6425 34.441 21.2159 34.5417 20.7922 34.4958L11.1076 33.4186V25.2222L16.8465 24.1784C17.1155 24.1289 17.392 24.1401 17.6561 24.2111L26.0621 26.4656C26.3783 26.5504 26.6479 26.7575 26.8115 27.0413C26.9752 27.3251 27.0195 27.6623 26.9347 27.9788C26.8499 28.2953 26.643 28.5651 26.3595 28.7289C26.0759 28.8927 25.739 28.937 25.4228 28.8522L19.2896 27.208C19.2106 27.1845 19.1276 27.177 19.0457 27.1861C18.9638 27.1952 18.8845 27.2206 18.8125 27.2609C18.7406 27.3012 18.6774 27.3555 18.6267 27.4206C18.5761 27.4857 18.539 27.5603 18.5176 27.64C18.4963 27.7197 18.4911 27.8029 18.5024 27.8846C18.5137 27.9663 18.5412 28.045 18.5834 28.1159C18.6255 28.1868 18.6815 28.2485 18.7478 28.2974C18.8142 28.3464 18.8898 28.3815 18.9699 28.4007L25.1013 30.0455C25.4145 30.1296 25.7411 30.1511 26.0626 30.1087C26.3841 30.0664 26.694 29.9611 26.9748 29.7988C27.2556 29.6366 27.5017 29.4205 27.6991 29.163C27.8965 28.9055 28.0412 28.6116 28.125 28.2981C28.2435 27.8501 28.2326 27.3777 28.0936 26.9356L33.9066 23.5755C34.048 23.4959 34.2037 23.445 34.3648 23.4257C34.5259 23.4064 34.6893 23.419 34.8455 23.4628C35.0017 23.5067 35.1478 23.5809 35.2754 23.6813C35.403 23.7816 35.5095 23.9061 35.589 24.0477C35.6685 24.1893 35.7194 24.3452 35.7387 24.5064C35.758 24.6677 35.7454 24.8312 35.7016 24.9875C35.6578 25.1439 35.5837 25.2901 35.4834 25.4178C35.3831 25.5455 35.2587 25.6522 35.1173 25.7318H35.1167Z" fill="white"/>
<path d="M36.4082 8.64726H33.3715C33.316 8.50211 33.2561 8.35634 33.1901 8.20872L35.3388 6.0574C35.4545 5.94158 35.5195 5.7845 35.5195 5.62072C35.5195 5.45694 35.4545 5.29986 35.3388 5.18403L31.8461 1.68807C31.7303 1.57227 31.5734 1.50723 31.4098 1.50723C31.2462 1.50723 31.0892 1.57227 30.9735 1.68807L28.8248 3.83877C28.6773 3.77268 28.5311 3.71523 28.3861 3.65717V0.617661C28.3861 0.453847 28.321 0.296743 28.2053 0.180909C28.0896 0.0650748 27.9326 0 27.769 0H22.8323C22.6686 0 22.5116 0.0650748 22.3959 0.180909C22.2802 0.296743 22.2152 0.453847 22.2152 0.617661V3.65717C22.0702 3.71276 21.9239 3.77268 21.7764 3.83877L19.6277 1.68807C19.512 1.57227 19.3551 1.50723 19.1914 1.50723C19.0278 1.50723 18.8709 1.57227 18.7552 1.68807L15.2624 5.18403C15.1467 5.29986 15.0818 5.45694 15.0818 5.62072C15.0818 5.7845 15.1467 5.94158 15.2624 6.0574L17.4111 8.2081C17.3451 8.35572 17.2877 8.50211 17.2297 8.64726H14.193C14.0294 8.64726 13.8724 8.71233 13.7567 8.82817C13.6409 8.944 13.5759 9.10111 13.5759 9.26492V14.2062C13.5759 14.37 13.6409 14.5271 13.7567 14.643C13.8724 14.7588 14.0294 14.8239 14.193 14.8239H17.2297C17.2852 14.969 17.3451 15.1154 17.4111 15.263L15.2624 17.4137C15.1467 17.5296 15.0818 17.6866 15.0818 17.8504C15.0818 18.0142 15.1467 18.1713 15.2624 18.2871L18.7552 21.7831C18.8709 21.8989 19.0278 21.9639 19.1914 21.9639C19.3551 21.9639 19.512 21.8989 19.6277 21.7831L21.7764 19.6324C21.9239 19.6985 22.0702 19.7559 22.2152 19.814V22.8535C22.2152 23.0173 22.2802 23.1744 22.3959 23.2902C22.5116 23.4061 22.6686 23.4711 22.8323 23.4711H27.769C27.9326 23.4711 28.0896 23.4061 28.2053 23.2902C28.321 23.1744 28.3861 23.0173 28.3861 22.8535V19.814C28.5311 19.7584 28.6773 19.6985 28.8248 19.6324L30.9735 21.7831C31.0914 21.8947 31.2475 21.9568 31.4098 21.9568C31.5721 21.9568 31.7282 21.8947 31.8461 21.7831L35.3388 18.2871C35.4545 18.1713 35.5195 18.0142 35.5195 17.8504C35.5195 17.6866 35.4545 17.5296 35.3388 17.4137L33.1901 15.2624C33.2561 15.1148 33.3135 14.969 33.3715 14.8239H36.4082C36.5719 14.8239 36.7288 14.7588 36.8445 14.643C36.9603 14.5271 37.0253 14.37 37.0253 14.2062V9.26492C37.0253 9.10111 36.9603 8.944 36.8445 8.82817C36.7288 8.71233 36.5719 8.64726 36.4082 8.64726ZM35.7911 13.5885H32.934C32.8028 13.5887 32.675 13.6307 32.5693 13.7084C32.4635 13.7862 32.3853 13.8956 32.3459 14.0209C32.2243 14.3978 32.0735 14.7645 31.8948 15.1179C31.8369 15.2338 31.8169 15.365 31.8376 15.4929C31.8583 15.6208 31.9187 15.739 32.0102 15.8307L34.0299 17.8504L31.4098 20.473L29.3901 18.4514C29.2985 18.3598 29.1804 18.2994 29.0526 18.2786C28.9248 18.2579 28.7937 18.2779 28.6779 18.3359C28.3249 18.5147 27.9585 18.6657 27.582 18.7874C27.4568 18.8268 27.3474 18.9051 27.2698 19.011C27.1921 19.1168 27.1501 19.2447 27.15 19.376V22.2358H23.4493V19.376C23.4492 19.2447 23.4073 19.1168 23.3296 19.011C23.2519 18.9051 23.1426 18.8268 23.0174 18.7874C22.6409 18.6657 22.2745 18.5147 21.9214 18.3359C21.8056 18.2779 21.6746 18.2579 21.5468 18.2786C21.419 18.2994 21.3009 18.3598 21.2093 18.4514L19.1914 20.473L16.5713 17.8504L18.591 15.8288C18.6825 15.7371 18.7429 15.619 18.7636 15.4911C18.7843 15.3631 18.7643 15.2319 18.7064 15.116C18.5278 14.7627 18.3769 14.3959 18.2553 14.0191C18.2159 13.8938 18.1377 13.7843 18.032 13.7066C17.9262 13.6288 17.7984 13.5868 17.6672 13.5867H14.8101V9.88258H17.6672C17.7984 9.88246 17.9262 9.84047 18.032 9.76272C18.1377 9.68497 18.2159 9.57551 18.2553 9.45022C18.3769 9.07337 18.5278 8.7066 18.7064 8.35325C18.7643 8.23734 18.7843 8.10614 18.7636 7.97822C18.7429 7.85031 18.6825 7.73214 18.591 7.64047L16.5713 5.62072L19.1914 2.99813L21.2112 5.01973C21.3028 5.11132 21.4208 5.17176 21.5486 5.19249C21.6764 5.21322 21.8075 5.19319 21.9233 5.13524C22.2757 4.95651 22.6415 4.80555 23.0174 4.68373C23.1426 4.64432 23.2519 4.56601 23.3296 4.46016C23.4073 4.35431 23.4492 4.22643 23.4493 4.09509V1.23532H27.1519V4.09509C27.152 4.22643 27.1939 4.35431 27.2716 4.46016C27.3493 4.56601 27.4587 4.64432 27.5838 4.68373C27.9603 4.80546 28.3268 4.95642 28.6798 5.13524C28.7956 5.19319 28.9267 5.21322 29.0545 5.19249C29.1823 5.17176 29.3003 5.11132 29.3919 5.01973L31.4098 2.99813L34.0299 5.62072L32.0102 7.64232C31.9187 7.734 31.8583 7.85216 31.8376 7.98008C31.8169 8.108 31.8369 8.2392 31.8948 8.3551C32.0735 8.70846 32.2243 9.07523 32.3459 9.45207C32.3853 9.57736 32.4635 9.68683 32.5693 9.76458C32.675 9.84233 32.8028 9.88431 32.934 9.88443H35.7911V13.5885Z" fill="white"/>
<path d="M25.3006 6.79431C24.3242 6.79431 23.3698 7.08411 22.5579 7.62707C21.7461 8.17002 21.1133 8.94175 20.7397 9.84465C20.366 10.7475 20.2683 11.7411 20.4588 12.6996C20.6492 13.6581 21.1194 14.5386 21.8098 15.2296C22.5002 15.9207 23.3799 16.3913 24.3375 16.5819C25.2951 16.7726 26.2877 16.6747 27.1898 16.3007C28.0919 15.9268 28.8629 15.2934 29.4053 14.4808C29.9478 13.6682 30.2373 12.7129 30.2373 11.7356C30.2358 10.4255 29.7153 9.16956 28.7898 8.2432C27.8643 7.31685 26.6094 6.79578 25.3006 6.79431ZM25.3006 15.4416C24.5683 15.4416 23.8525 15.2242 23.2436 14.817C22.6347 14.4098 22.1601 13.831 21.8799 13.1538C21.5997 12.4766 21.5264 11.7315 21.6692 11.0126C21.8121 10.2937 22.1647 9.63337 22.6825 9.11508C23.2003 8.59679 23.8601 8.24384 24.5783 8.10084C25.2965 7.95785 26.041 8.03124 26.7175 8.31173C27.394 8.59223 27.9723 9.06723 28.3791 9.67667C28.786 10.2861 29.0031 11.0026 29.0031 11.7356C29.0022 12.7182 28.6118 13.6602 27.9176 14.355C27.2235 15.0498 26.2823 15.4406 25.3006 15.4416Z" fill="white"/>
<path d="M7.40504 35.2067C7.77118 35.2067 8.12911 35.098 8.43354 34.8944C8.73798 34.6908 8.97526 34.4014 9.11538 34.0628C9.2555 33.7242 9.29216 33.3516 9.22073 32.9922C9.1493 32.6327 8.97298 32.3026 8.71408 32.0434C8.45517 31.7843 8.12531 31.6078 7.7662 31.5363C7.40709 31.4648 7.03486 31.5015 6.69659 31.6418C6.35831 31.782 6.06919 32.0195 5.86577 32.3242C5.66235 32.6289 5.55377 32.9872 5.55377 33.3537C5.55377 33.8451 5.74882 34.3164 6.09599 34.6639C6.44317 35.0114 6.91405 35.2067 7.40504 35.2067ZM7.40504 32.736C7.52709 32.736 7.64639 32.7722 7.74787 32.8401C7.84935 32.908 7.92845 33.0045 7.97515 33.1173C8.02186 33.2302 8.03408 33.3544 8.01027 33.4742C7.98646 33.594 7.92769 33.7041 7.84138 33.7904C7.75508 33.8768 7.64513 33.9356 7.52542 33.9595C7.40572 33.9833 7.28165 33.9711 7.16889 33.9243C7.05613 33.8776 6.95975 33.7984 6.89195 33.6968C6.82414 33.5953 6.78795 33.4758 6.78795 33.3537C6.78795 33.1899 6.85296 33.0328 6.96869 32.9169C7.08442 32.8011 7.24137 32.736 7.40504 32.736Z" fill="white"/>
<path d="M16.0443 11.1179H17.2784V12.3532H16.0443V11.1179Z" fill="white"/>
<path d="M18.3157 17.8503L19.188 16.9772L20.0603 17.8503L19.188 18.7234L18.3157 17.8503Z" fill="white"/>
<path d="M24.6835 19.7651H25.9177V21.0005H24.6835V19.7651Z" fill="white"/>
<path d="M30.5321 17.8516L31.4044 16.9785L32.2767 17.8516L31.4044 18.7247L30.5321 17.8516Z" fill="white"/>
<path d="M33.3228 11.1179H34.5569V12.3532H33.3228V11.1179Z" fill="white"/>
<path d="M30.5334 5.62389L31.4057 4.75078L32.278 5.62389L31.4057 6.49699L30.5334 5.62389Z" fill="white"/>
</svg>
