<svg width="38" height="38" viewBox="0 0 38 38" fill="none" xmlns="http://www.w3.org/2000/svg">
<path d="M17.8515 14.8239V16.0592H18.5126C19.1264 16.0592 19.715 16.287 20.1489 16.6924C20.5829 17.0978 20.8267 17.6477 20.8267 18.221C20.8267 18.7944 20.5829 19.3442 20.1489 19.7496C19.715 20.1551 19.1264 20.3828 18.5126 20.3828H15.868C15.605 20.3828 15.3527 20.4804 15.1667 20.6542C14.9807 20.8279 14.8762 21.0636 14.8762 21.3093C14.8762 21.555 14.9807 21.7907 15.1667 21.9644C15.3527 22.1382 15.605 22.2358 15.868 22.2358H20.1656V23.4711H17.8515V24.7064H16.5291V23.4711H15.868C15.2542 23.4711 14.6657 23.2433 14.2317 22.8379C13.7977 22.4325 13.5539 21.8826 13.5539 21.3093C13.5539 20.736 13.7977 20.1861 14.2317 19.7807C14.6657 19.3753 15.2542 19.1475 15.868 19.1475H18.5126C18.7757 19.1475 19.0279 19.0499 19.2139 18.8762C19.3999 18.7024 19.5044 18.4668 19.5044 18.221C19.5044 17.9753 19.3999 17.7397 19.2139 17.5659C19.0279 17.3922 18.7757 17.2946 18.5126 17.2946H14.2151V16.0592H16.5291V14.8239H17.8515Z" fill="white"/>
<path d="M0.661171 27.1771H6.61166L7.27283 26.3535V18.6519C7.27275 16.8475 7.90217 15.0922 9.06576 13.652C10.2293 12.2119 11.8637 11.1652 13.7212 10.6706L12.5876 6.96418C12.5595 6.87225 12.5545 6.77547 12.5732 6.68146C12.592 6.58745 12.6338 6.49878 12.6954 6.42243C12.757 6.34609 12.8368 6.28415 12.9284 6.2415C13.02 6.19886 13.121 6.17666 13.2233 6.17667H17.1903V7.41199H14.0994L15.0439 10.5003H17.1903V11.7356H14.6125C12.9118 12.0675 11.3852 12.9362 10.2894 14.1957C9.19357 15.4552 8.5953 17.0288 8.59516 18.6519V26.5594C8.59482 26.6532 8.57161 26.7456 8.52731 26.8297C9.95381 26.1914 11.526 25.8893 13.1064 25.9498C14.6867 26.0104 16.2271 26.4318 17.5929 27.1771H22.4796C22.8859 27.1775 23.2866 27.2653 23.6507 27.4336C24.0148 27.6018 24.3326 27.8461 24.5795 28.1475C24.8264 28.4489 24.9957 28.7993 25.0745 29.1717C25.1532 29.544 25.1391 29.9282 25.0334 30.2947L27.6656 29.1682C27.6235 29.0752 27.5694 28.9873 27.5045 28.9066L25.9177 26.93C25.8319 26.8231 25.7855 26.6931 25.7855 26.5594V19.7652H27.1078V26.3535L28.5624 28.1654C28.6835 28.3168 28.7857 28.4807 28.8668 28.6539L31.0447 27.722C31.6961 27.4432 32.4367 27.4063 33.1162 27.619C33.7956 27.8317 34.3629 28.278 34.7029 28.8673C34.9388 29.2952 35.0554 29.7718 35.0418 30.253C35.0435 30.743 34.8983 31.2236 34.6227 31.6404C34.347 32.0572 33.9519 32.3936 33.4821 32.6114L25.7727 36.2124C24.5787 36.7681 23.2632 37.0581 21.9292 37.0597H0.661171C0.485821 37.0597 0.31765 36.9946 0.193657 36.8788C0.069664 36.7629 7.62939e-06 36.6058 7.62939e-06 36.442V27.7948C7.62939e-06 27.631 0.069664 27.4738 0.193657 27.358C0.31765 27.2422 0.485821 27.1771 0.661171 27.1771ZM8.59516 35.8243H21.9292C23.058 35.823 24.1711 35.5777 25.1814 35.1075L32.8904 31.5066C33.1401 31.3908 33.3502 31.212 33.4967 30.9905C33.6432 30.7689 33.7204 30.5135 33.7194 30.253C33.7296 29.9766 33.6676 29.702 33.5387 29.4529C33.3587 29.1394 33.0574 28.9018 32.6962 28.7888C32.3351 28.6757 31.9413 28.6958 31.5955 28.8448L24.0771 32.062C23.9908 32.0991 23.8969 32.1183 23.802 32.1184H16.5291V30.8831H22.4796C22.8303 30.8831 23.1667 30.7529 23.4147 30.5212C23.6626 30.2896 23.802 29.9754 23.802 29.6477C23.802 29.3201 23.6626 29.0059 23.4147 28.7742C23.1667 28.5426 22.8303 28.4124 22.4796 28.4124H17.411C17.2911 28.4124 17.1735 28.382 17.0707 28.3243L17.0087 28.2896C15.8028 27.6139 14.4339 27.2333 13.0287 27.1829C11.6236 27.1325 10.2275 27.4139 8.96963 28.0012L8.59516 28.1763V35.8243ZM1.32234 35.8243H7.27283V28.4124H1.32234V35.8243Z" fill="white"/>
<path d="M4.62817 34.589C3.89787 34.589 3.30584 34.0359 3.30584 33.3537C3.30584 32.6714 3.89787 32.1184 4.62817 32.1184C5.35847 32.1184 5.9505 32.6714 5.9505 33.3537C5.9505 34.0359 5.35847 34.589 4.62817 34.589Z" fill="white"/>
<path d="M32.3818 16.8853C32.3622 16.9693 32.324 17.0485 32.2697 17.1179C32.2154 17.1873 32.1462 17.2453 32.0665 17.2883C31.9868 17.3313 31.8984 17.3582 31.807 17.3675C31.7155 17.3767 31.623 17.368 31.5353 17.3419L29.2277 16.6554L27.5966 18.3279C27.5346 18.3914 27.4591 18.4422 27.375 18.4769C27.2908 18.5116 27.1998 18.5296 27.1078 18.5296C27.0158 18.5296 26.9248 18.5116 26.8406 18.4769C26.7565 18.4422 26.681 18.3914 26.619 18.3279L24.9879 16.6554L22.6803 17.3419C22.5926 17.368 22.5001 17.3767 22.4086 17.3675C22.3172 17.3582 22.2288 17.3313 22.1491 17.2883C22.0694 17.2453 22.0002 17.1873 21.9459 17.1179C21.8916 17.0485 21.8534 16.9693 21.8338 16.8853L21.3163 14.6751L18.9503 14.1916C18.8605 14.1733 18.7757 14.1376 18.7014 14.0869C18.6271 14.0361 18.565 13.9715 18.519 13.8971C18.473 13.8226 18.4441 13.74 18.4342 13.6546C18.4243 13.5691 18.4337 13.4827 18.4616 13.4008L19.1965 11.245L17.4062 9.72124C17.3382 9.66335 17.2838 9.59284 17.2467 9.51422C17.2095 9.43559 17.1903 9.35059 17.1903 9.26463C17.1903 9.17868 17.2095 9.09367 17.2467 9.01504C17.2838 8.93642 17.3382 8.86591 17.4062 8.80803L19.1965 7.28457L18.4616 5.12878C18.4337 5.04686 18.4244 4.9604 18.4343 4.87493C18.4442 4.78946 18.4731 4.70686 18.5191 4.63242C18.5651 4.55798 18.6273 4.49334 18.7016 4.44263C18.7759 4.39192 18.8608 4.35627 18.9507 4.33794L21.3167 3.85447L21.8338 1.64456C21.8534 1.56059 21.8916 1.48138 21.9459 1.41199C22.0002 1.3426 22.0694 1.28456 22.1491 1.24159C22.2288 1.19861 22.3172 1.17164 22.4086 1.16241C22.5001 1.15317 22.5926 1.16187 22.6803 1.18796L24.9879 1.87418L26.619 0.201708C26.681 0.138167 26.7565 0.087406 26.8406 0.0526731C26.9248 0.0179403 27.0158 0 27.1078 0C27.1998 0 27.2908 0.0179403 27.375 0.0526731C27.4591 0.087406 27.5346 0.138167 27.5966 0.201708L29.2277 1.87418L31.5353 1.18765C31.623 1.16157 31.7155 1.15288 31.807 1.16213C31.8985 1.17139 31.9869 1.19838 32.0666 1.24139C32.1463 1.2844 32.2155 1.34247 32.2698 1.4119C32.3241 1.48132 32.3622 1.56057 32.3818 1.64456L32.8993 3.85447L35.2649 4.33794C35.3548 4.3563 35.4396 4.39199 35.5139 4.44271C35.5882 4.49343 35.6503 4.55808 35.6963 4.63251C35.7423 4.70695 35.7712 4.78953 35.781 4.87499C35.7909 4.96044 35.7816 5.04688 35.7537 5.12878L35.0188 7.28457L36.8094 8.80834C36.8774 8.86622 36.9318 8.93673 36.9689 9.01535C37.0061 9.09398 37.0253 9.17899 37.0253 9.26494C37.0253 9.35089 37.0061 9.4359 36.9689 9.51453C36.9318 9.59315 36.8774 9.66366 36.8094 9.72155L35.0191 11.2453L35.754 13.4011C35.7819 13.483 35.7912 13.5695 35.7813 13.655C35.7714 13.7404 35.7425 13.823 35.6965 13.8975C35.6505 13.9719 35.5883 14.0365 35.514 14.0872C35.4397 14.138 35.3548 14.1736 35.2649 14.1919L32.899 14.6754L32.3818 16.8853ZM33.8152 10.5989L35.3824 9.26494L33.8152 7.93103C33.7217 7.85144 33.6546 7.74846 33.6219 7.63431C33.5891 7.52017 33.5921 7.39964 33.6305 7.28704L34.2738 5.39986L32.2027 4.97668C32.0791 4.95143 31.9659 4.8936 31.8764 4.81004C31.787 4.72648 31.7251 4.6207 31.698 4.50525L31.2451 2.57043L29.225 3.17142C29.1045 3.20724 28.9755 3.21003 28.8533 3.17944C28.7311 3.14886 28.6208 3.08619 28.5356 2.99886L27.1078 1.53477L25.68 2.99886C25.5948 3.08623 25.4846 3.14893 25.3624 3.17951C25.2402 3.2101 25.1111 3.20729 24.9906 3.17142L22.9705 2.57043L22.5176 4.50525C22.4906 4.6207 22.4286 4.72648 22.3392 4.81004C22.2497 4.8936 22.1365 4.95143 22.0129 4.97668L19.9418 5.39986L20.5851 7.28704C20.6235 7.39964 20.6265 7.52017 20.5937 7.63431C20.561 7.74846 20.4939 7.85144 20.4004 7.93103L18.8332 9.26494L20.4004 10.5989C20.4939 10.6784 20.561 10.7814 20.5937 10.8956C20.6265 11.0097 20.6235 11.1302 20.5851 11.2428L19.9418 13.13L22.0129 13.5532C22.1365 13.5784 22.2497 13.6363 22.3392 13.7198C22.4286 13.8034 22.4906 13.9092 22.5176 14.0246L22.9705 15.9594L24.9906 15.3585C25.1111 15.3226 25.2402 15.3198 25.3624 15.3504C25.4846 15.381 25.5948 15.4437 25.68 15.531L27.1078 16.9951L28.5356 15.531C28.6208 15.4437 28.731 15.381 28.8532 15.3504C28.9754 15.3198 29.1045 15.3226 29.225 15.3585L31.2451 15.9594L31.698 14.0246C31.7251 13.9092 31.787 13.8034 31.8764 13.7198C31.9659 13.6363 32.0791 13.5784 32.2027 13.5532L34.2738 13.13L33.6305 11.2428C33.5921 11.1302 33.5891 11.0097 33.6219 10.8956C33.6546 10.7814 33.7217 10.6784 33.8152 10.5989Z" fill="white"/>
<path d="M24.2695 5.7399L30.8812 11.9166L29.9461 12.7901L23.3345 6.61341L24.2695 5.7399Z" fill="white"/>
<path d="M29.7525 8.64731C29.3602 8.64731 28.9767 8.53863 28.6505 8.33502C28.3243 8.13141 28.0701 7.84201 27.92 7.50342C27.7698 7.16483 27.7306 6.79226 27.8071 6.43281C27.8836 6.07336 28.0725 5.74319 28.3499 5.48405C28.6273 5.2249 28.9807 5.04842 29.3655 4.97692C29.7503 4.90542 30.1491 4.94212 30.5115 5.08237C30.874 5.22262 31.1837 5.46012 31.4017 5.76484C31.6196 6.06957 31.736 6.42782 31.736 6.79431C31.7354 7.28559 31.5262 7.75658 31.1544 8.10397C30.7825 8.45135 30.2783 8.64676 29.7525 8.64731ZM29.7525 6.17665C29.6217 6.17665 29.4939 6.21287 29.3851 6.28074C29.2764 6.34861 29.1917 6.44508 29.1416 6.55794C29.0916 6.67081 29.0785 6.795 29.104 6.91481C29.1295 7.03463 29.1925 7.14469 29.285 7.23107C29.3774 7.31745 29.4952 7.37628 29.6235 7.40011C29.7517 7.42394 29.8847 7.41171 30.0055 7.36496C30.1263 7.31821 30.2296 7.23904 30.3022 7.13747C30.3749 7.03589 30.4136 6.91647 30.4136 6.79431C30.4134 6.63055 30.3437 6.47355 30.2198 6.35776C30.0958 6.24197 29.9278 6.17683 29.7525 6.17665Z" fill="white"/>
<path d="M25.7855 11.1179C25.7855 11.4844 25.6691 11.8427 25.4512 12.1474C25.2332 12.4521 24.9235 12.6896 24.561 12.8299C24.1986 12.9701 23.7998 13.0068 23.415 12.9353C23.0302 12.8638 22.6768 12.6873 22.3994 12.4282C22.122 12.169 21.9331 11.8389 21.8566 11.4794C21.78 11.12 21.8193 10.7474 21.9695 10.4088C22.1196 10.0702 22.3738 9.78082 22.7 9.57721C23.0262 9.3736 23.4097 9.26492 23.802 9.26492C24.3278 9.26547 24.832 9.46088 25.2039 9.80826C25.5757 10.1556 25.7849 10.6266 25.7855 11.1179ZM23.1408 11.1179C23.1408 11.2401 23.1796 11.3595 23.2522 11.4611C23.3249 11.5627 23.4281 11.6418 23.5489 11.6886C23.6698 11.7353 23.8027 11.7475 23.931 11.7237C24.0592 11.6999 24.177 11.6411 24.2695 11.5547C24.3619 11.4683 24.4249 11.3582 24.4504 11.2384C24.4759 11.1186 24.4628 10.9944 24.4128 10.8815C24.3628 10.7687 24.278 10.6722 24.1693 10.6043C24.0606 10.5365 23.9327 10.5003 23.802 10.5003C23.6267 10.5004 23.4586 10.5656 23.3347 10.6814C23.2107 10.7972 23.141 10.9542 23.1408 11.1179Z" fill="white"/>
</svg>
