<svg width="150" height="150" viewBox="0 0 150 150" fill="none" xmlns="http://www.w3.org/2000/svg">
<path d="M75 0C60.1664 0 45.6659 4.39867 33.3323 12.6398C20.9986 20.8809 11.3856 32.5943 5.70907 46.2987C0.0324962 60.0032 -1.45275 75.0832 1.44114 89.6318C4.33503 104.18 11.4781 117.544 21.967 128.033C32.456 138.522 45.8197 145.665 60.3683 148.559C74.9168 151.453 89.9968 149.967 103.701 144.291C117.406 138.614 129.119 129.001 137.36 116.668C145.601 104.334 150 89.8336 150 75C150 55.1088 142.098 36.0322 128.033 21.967C113.968 7.90176 94.8913 0 75 0ZM75 26.7857C79.768 26.7857 84.4288 28.1996 88.3932 30.8485C92.3576 33.4974 95.4475 37.2624 97.2721 41.6674C99.0967 46.0724 99.5741 50.9196 98.6439 55.5959C97.7138 60.2722 95.4178 64.5677 92.0463 67.9392C88.6749 71.3106 84.3794 73.6066 79.7031 74.5368C75.0268 75.4669 70.1796 74.9896 65.7746 73.1649C61.3696 71.3403 57.6046 68.2505 54.9557 64.2861C52.3067 60.3217 50.8929 55.6608 50.8929 50.8928C50.8858 47.7251 51.5046 44.5871 52.7135 41.6591C53.9225 38.7311 55.698 36.0707 57.938 33.8308C60.1779 31.5908 62.8383 29.8154 65.7663 28.6064C68.6943 27.3974 71.8322 26.7786 75 26.7857ZM117.857 122.786C106.109 133.405 90.8365 139.285 75 139.285C59.1635 139.285 43.891 133.405 32.1429 122.786V119.679C31.94 112.344 34.6394 105.225 39.6547 99.8684C44.67 94.512 51.5961 91.3508 58.9286 91.0714H91.0714C98.3707 91.3644 105.264 94.5075 110.272 99.8259C115.28 105.144 118.003 112.214 117.857 119.518V122.786Z" fill="#1270B5"/>
</svg>
