<svg width="100" height="101" viewBox="0 0 100 101" fill="none" xmlns="http://www.w3.org/2000/svg">
<path d="M50 0C40.111 0 30.444 2.93517 22.2215 8.43433C13.999 13.9335 7.59043 21.7497 3.80604 30.8944C0.0216642 40.0392 -0.968502 50.1018 0.960758 59.8099C2.89002 69.5179 7.65206 78.4353 14.6447 85.4344C21.6373 92.4335 30.5465 97.2 40.2455 99.131C49.9445 101.062 59.9979 100.071 69.1342 96.2831C78.2705 92.4952 86.0794 86.0807 91.5735 77.8506C97.0676 69.6205 100 59.9446 100 50.0463C100 36.7732 94.7322 24.0437 85.3553 14.6582C75.9785 5.27272 63.2608 0 50 0ZM50 17.8737C53.1786 17.8737 56.2859 18.8171 58.9288 20.5847C61.5718 22.3523 63.6317 24.8646 64.8481 27.804C66.0645 30.7434 66.3828 33.9779 65.7626 37.0983C65.1425 40.2187 63.6119 43.085 61.3642 45.3348C59.1166 47.5845 56.2529 49.1165 53.1354 49.7372C50.0178 50.3579 46.7864 50.0394 43.8497 48.8218C40.9131 47.6043 38.4031 45.5425 36.6371 42.8971C34.8712 40.2517 33.9286 37.1416 33.9286 33.96C33.9239 31.8462 34.3364 29.7523 35.1424 27.7985C35.9484 25.8447 37.132 24.0694 38.6253 22.5748C40.1186 21.0801 41.8922 19.8953 43.8442 19.0886C45.7962 18.2818 47.8882 17.869 50 17.8737ZM78.5714 81.933C70.7393 89.0193 60.5577 92.9427 50 92.9427C39.4423 92.9427 29.2607 89.0193 21.4286 81.933V79.8596C21.2933 74.9651 23.0929 70.2148 26.4365 66.6406C29.78 63.0664 34.3974 60.957 39.2857 60.7705H60.7143C65.5805 60.966 70.1761 63.0634 73.5147 66.6123C76.8534 70.1612 78.6688 74.8788 78.5714 79.7524V81.933Z" fill="white"/>
</svg>
